<mxfile host="app.diagrams.net" modified="2023-05-30T09:09:20.595Z" agent="Mozilla/5.0 (Macintosh; Intel Mac OS X 10_15_7) AppleWebKit/537.36 (KHTML, like Gecko) Chrome/98.0.4758.102 Safari/537.36 NetType/WIFI MicroMessenger/6.8.0(0x16080000) MacWechat/3.7.1(0x13070110) XWEB/30419 Flue" version="21.3.5" etag="E2VmEUgqYUD6qXMRbLZB" type="github">
  <diagram name="Page-1" id="XbLQTX3VgMfKCjsqGow8">
    <mxGraphModel>
      <root>
        <mxCell id="0" />
        <mxCell id="1" parent="0" />
      </root>
    </mxGraphModel>
  </diagram>
</mxfile>
